<?xml version="1.0" encoding="UTF-8" standalone="no"?>
<svg
   width="16"
   height="16"
   version="1.1"
   id="svg4"
   sodipodi:docname="headphones-battery-medium.svg"
   inkscape:version="1.1.1 (3bf5ae0d25, 2021-09-20)"
   xmlns:inkscape="http://www.inkscape.org/namespaces/inkscape"
   xmlns:sodipodi="http://sodipodi.sourceforge.net/DTD/sodipodi-0.dtd"
   xmlns="http://www.w3.org/2000/svg"
   xmlns:svg="http://www.w3.org/2000/svg">
  <defs
     id="defs8" />
  <sodipodi:namedview
     id="namedview6"
     pagecolor="#ffffff"
     bordercolor="#666666"
     borderopacity="1.0"
     inkscape:pageshadow="2"
     inkscape:pageopacity="0.0"
     inkscape:pagecheckerboard="0"
     showgrid="false"
     inkscape:zoom="39.375"
     inkscape:cx="7.9873016"
     inkscape:cy="7.9873016"
     inkscape:window-width="2560"
     inkscape:window-height="1359"
     inkscape:window-x="0"
     inkscape:window-y="0"
     inkscape:window-maximized="1"
     inkscape:current-layer="svg4" />
  <path
     style="fill:#dfdfdf;opacity:0.35"
     d="M 8,2 C 4.68,2 2,4.68 2,8 V 12 C 2,12 2,14 4,14 H 6 V 9 H 4 V 8 C 4,5.78 5.78,4 8,4 10.22,4 12,5.78 12,8 V 9 H 10 V 14 H 12 C 12,14 14,14 14,12 V 8 C 14,4.68 11.32,2 8,2 Z"
     id="path2" />
  <path
     id="path2-3"
     style="fill:#dfdfdf"
     d="m 1.9999996,8 v 4 c 0,0 0,2 2,2 H 6 V 9 H 3.9999996 V 8 Z M 12,8 v 1 h -2 v 5 h 2 c 0,0 2,0 2,-2 V 8 Z" />
</svg>
