<?xml version="1.0" encoding="UTF-8" standalone="no"?>
<svg
   width="16"
   height="16"
   viewBox="0 0 16 16"
   version="1.1"
   id="svg9"
   sodipodi:docname="headphones-battery-low.svg"
   inkscape:version="1.1.1 (3bf5ae0d25, 2021-09-20)"
   xmlns:inkscape="http://www.inkscape.org/namespaces/inkscape"
   xmlns:sodipodi="http://sodipodi.sourceforge.net/DTD/sodipodi-0.dtd"
   xmlns="http://www.w3.org/2000/svg"
   xmlns:svg="http://www.w3.org/2000/svg">
  <sodipodi:namedview
     id="namedview11"
     pagecolor="#ffffff"
     bordercolor="#666666"
     borderopacity="1.0"
     inkscape:pageshadow="2"
     inkscape:pageopacity="0.0"
     inkscape:pagecheckerboard="0"
     showgrid="false"
     inkscape:zoom="39.375"
     inkscape:cx="11.949206"
     inkscape:cy="8.4952381"
     inkscape:window-width="2560"
     inkscape:window-height="1359"
     inkscape:window-x="0"
     inkscape:window-y="0"
     inkscape:window-maximized="1"
     inkscape:current-layer="svg9" />
  <defs
     id="defs3">
    <style
       id="current-color-scheme"
       type="text/css">
   .ColorScheme-Text { color:#dfdfdf; } .ColorScheme-Highlight { color:#4285f4; } .ColorScheme-NeutralText { color:#ff9800; } .ColorScheme-PositiveText { color:#4caf50; } .ColorScheme-NegativeText { color:#f44336; }
  </style>
  </defs>
  <path
     style="opacity:0.3;fill:currentColor"
     class="ColorScheme-Text"
     d="M 8 2 C 4.676 2 2 4.676 2 8 L 2 12 C 2 12 2 14 4 14 L 6 14 L 6 9 L 4 9 L 4 8 C 4 5.784 5.784 4 8 4 C 10.216 4 12 5.784 12 8 L 12 9 L 10 9 L 10 14 L 12 14 C 12 14 14 14 14 12 L 14 8 C 14 4.676 11.324 2 8 2 z"
     id="path5" />
  <path
     style="fill:#ff9800;opacity:0.35;fill-opacity:1"
     class="ColorScheme-Text"
     d="M 8 2 C 4.676 2 2 4.676 2 8 L 2 12 C 2 12 2 14 4 14 L 6 14 L 6 9 L 4 9 L 4 8 C 4 5.784 5.784 4 8 4 C 10.216 4 12 5.784 12 8 L 12 9 L 10 9 L 10 14 L 12 14 C 12 14 14 14 14 12 L 14 8 C 14 4.676 11.324 2 8 2 z"
     id="path7" />
  <path
     id="path5-3"
     style="color:#dfdfdf;opacity:1;fill:#ff9800;fill-opacity:1"
     class="ColorScheme-Text"
     d="m 2,10 v 2 c 0,0 0,2 2,2 h 2 v -4 z m 8,0 v 4 h 2 c 0,0 2,0 2,-2 v -2 z" />
</svg>
